<?xml version="1.0" encoding="UTF-8" standalone="no"?>
<!DOCTYPE svg PUBLIC "-//W3C//DTD SVG 1.1//EN"
 "http://www.w3.org/Graphics/SVG/1.1/DTD/svg11.dtd">
<!-- Generated by graphviz version 2.43.0 (0)
 -->
<!-- Title: %3 Pages: 1 -->
<svg width="627pt" height="1076pt"
 viewBox="0.00 0.00 627.50 1076.00" xmlns="http://www.w3.org/2000/svg" xmlns:xlink="http://www.w3.org/1999/xlink">
<g id="graph0" class="graph" transform="scale(1 1) rotate(0) translate(4 1072)">
<title>%3</title>
<polygon fill="white" stroke="transparent" points="-4,4 -4,-1072 623.5,-1072 623.5,4 -4,4"/>
<!-- 3 -->
<g id="node1" class="node">
<title>3</title>
<polygon fill="none" stroke="black" points="228,-1068 73,-1068 73,-1012 228,-1012 228,-1068"/>
<text text-anchor="start" x="90" y="-1055.4" font-family="Times,serif" font-size="12.00">github.com/derailed</text>
<text text-anchor="start" x="130.5" y="-1035.4" font-family="Times,serif" font-size="22.00">k9s</text>
<text text-anchor="start" x="81" y="-1019.8" font-family="Times,serif" font-size="14.00">build 17.056302ms</text>
</g>
<!-- 5 -->
<g id="node2" class="node">
<title>5</title>
<polygon fill="none" stroke="black" points="232.5,-976 68.5,-976 68.5,-920 232.5,-920 232.5,-976"/>
<text text-anchor="start" x="77.5" y="-963.4" font-family="Times,serif" font-size="12.00">github.com/derailed/k9s</text>
<text text-anchor="start" x="126.5" y="-943.4" font-family="Times,serif" font-size="22.00">cmd</text>
<text text-anchor="start" x="76.5" y="-927.8" font-family="Times,serif" font-size="14.00">build 170.344979ms</text>
</g>
<!-- 3&#45;&gt;5 -->
<g id="edge1" class="edge">
<title>3&#45;&gt;5</title>
<path fill="none" stroke="black" d="M150.5,-1012C150.5,-1003.97 150.5,-995.03 150.5,-986.47"/>
<polygon fill="black" stroke="black" points="154,-986.29 150.5,-976.29 147,-986.3 154,-986.29"/>
</g>
<!-- 22 -->
<g id="node3" class="node">
<title>22</title>
<polygon fill="none" stroke="black" points="238,-700 25,-700 25,-644 238,-644 238,-700"/>
<text text-anchor="start" x="33" y="-687.4" font-family="Times,serif" font-size="12.00">github.com/derailed/k9s/internal</text>
<text text-anchor="start" x="120.5" y="-667.4" font-family="Times,serif" font-size="22.00">ui</text>
<text text-anchor="start" x="57.5" y="-651.8" font-family="Times,serif" font-size="14.00">build 750.135239ms</text>
</g>
<!-- 5&#45;&gt;22 -->
<g id="edge2" class="edge">
<title>5&#45;&gt;22</title>
<path fill="none" stroke="black" d="M113.19,-919.87C78.59,-892.19 29.39,-845.74 8.5,-792 -0.52,-768.8 -4.48,-757.24 8.5,-736 16.07,-723.61 26.94,-713.56 39.13,-705.43"/>
<polygon fill="black" stroke="black" points="41.08,-708.34 47.74,-700.1 37.4,-702.38 41.08,-708.34"/>
</g>
<!-- 23 -->
<g id="node4" class="node">
<title>23</title>
<polygon fill="none" stroke="black" points="418,-884 205,-884 205,-828 418,-828 418,-884"/>
<text text-anchor="start" x="213" y="-871.4" font-family="Times,serif" font-size="12.00">github.com/derailed/k9s/internal</text>
<text text-anchor="start" x="285.5" y="-851.4" font-family="Times,serif" font-size="22.00">view</text>
<text text-anchor="start" x="240" y="-835.8" font-family="Times,serif" font-size="14.00">build 1.795657517s</text>
</g>
<!-- 5&#45;&gt;23 -->
<g id="edge3" class="edge">
<title>5&#45;&gt;23</title>
<path fill="none" stroke="black" d="M198.8,-920C216.24,-910.25 236.08,-899.16 254.21,-889.03"/>
<polygon fill="black" stroke="black" points="255.93,-892.07 262.95,-884.14 252.51,-885.96 255.93,-892.07"/>
</g>
<!-- 98 -->
<g id="node5" class="node">
<title>98</title>
<polygon fill="none" stroke="black" points="456,-424 243,-424 243,-368 456,-368 456,-424"/>
<text text-anchor="start" x="251" y="-411.4" font-family="Times,serif" font-size="12.00">github.com/derailed/k9s/internal</text>
<text text-anchor="start" x="329" y="-391.4" font-family="Times,serif" font-size="22.00">dao</text>
<text text-anchor="start" x="275.5" y="-375.8" font-family="Times,serif" font-size="14.00">build 788.569378ms</text>
</g>
<!-- 22&#45;&gt;98 -->
<g id="edge4" class="edge">
<title>22&#45;&gt;98</title>
<path fill="none" stroke="black" d="M113.24,-643.6C99.2,-618.85 84.39,-581.85 98.5,-552 127.37,-490.92 193.13,-451.64 250.09,-427.9"/>
<polygon fill="black" stroke="black" points="251.57,-431.08 259.52,-424.08 248.94,-424.59 251.57,-431.08"/>
</g>
<!-- 99 -->
<g id="node6" class="node">
<title>99</title>
<polygon fill="none" stroke="black" points="321,-608 108,-608 108,-552 321,-552 321,-608"/>
<text text-anchor="start" x="116" y="-595.4" font-family="Times,serif" font-size="12.00">github.com/derailed/k9s/internal</text>
<text text-anchor="start" x="180" y="-575.4" font-family="Times,serif" font-size="22.00">model</text>
<text text-anchor="start" x="140.5" y="-559.8" font-family="Times,serif" font-size="14.00">build 444.912435ms</text>
</g>
<!-- 22&#45;&gt;99 -->
<g id="edge5" class="edge">
<title>22&#45;&gt;99</title>
<path fill="none" stroke="black" d="M156.4,-644C164.61,-635.09 173.87,-625.06 182.53,-615.66"/>
<polygon fill="black" stroke="black" points="185.12,-618.02 189.33,-608.29 179.97,-613.27 185.12,-618.02"/>
</g>
<!-- 23&#45;&gt;22 -->
<g id="edge9" class="edge">
<title>23&#45;&gt;22</title>
<path fill="none" stroke="black" d="M304.09,-827.93C295.74,-801.68 279.91,-762.1 254.5,-736 242.54,-723.71 227.66,-713.38 212.44,-704.86"/>
<polygon fill="black" stroke="black" points="213.93,-701.68 203.46,-700.05 210.63,-707.86 213.93,-701.68"/>
</g>
<!-- 23&#45;&gt;98 -->
<g id="edge6" class="edge">
<title>23&#45;&gt;98</title>
<path fill="none" stroke="black" d="M418.36,-837.11C507.31,-815.38 619.5,-768.96 619.5,-673 619.5,-673 619.5,-673 619.5,-579 619.5,-500.01 539.06,-453.03 466,-426.65"/>
<polygon fill="black" stroke="black" points="466.8,-423.22 456.21,-423.22 464.49,-429.83 466.8,-423.22"/>
</g>
<!-- 23&#45;&gt;99 -->
<g id="edge7" class="edge">
<title>23&#45;&gt;99</title>
<path fill="none" stroke="black" d="M307.38,-827.65C303.32,-803.27 296.31,-766.77 286.5,-736 272.96,-693.52 265.49,-684.34 246.5,-644 242.39,-635.28 237.79,-625.98 233.39,-617.27"/>
<polygon fill="black" stroke="black" points="236.38,-615.43 228.72,-608.11 230.14,-618.61 236.38,-615.43"/>
</g>
<!-- 112 -->
<g id="node7" class="node">
<title>112</title>
<polygon fill="none" stroke="black" points="591,-700 378,-700 378,-644 591,-644 591,-700"/>
<text text-anchor="start" x="386" y="-687.4" font-family="Times,serif" font-size="12.00">github.com/derailed/k9s/internal</text>
<text text-anchor="start" x="461.5" y="-667.4" font-family="Times,serif" font-size="22.00">perf</text>
<text text-anchor="start" x="415" y="-651.8" font-family="Times,serif" font-size="14.00">build 43.795665ms</text>
</g>
<!-- 23&#45;&gt;112 -->
<g id="edge8" class="edge">
<title>23&#45;&gt;112</title>
<path fill="none" stroke="black" d="M337.4,-827.75C367.81,-795.76 418.29,-742.65 451.49,-707.73"/>
<polygon fill="black" stroke="black" points="454.35,-709.8 458.7,-700.14 449.28,-704.97 454.35,-709.8"/>
</g>
<!-- 115 -->
<g id="node8" class="node">
<title>115</title>
<polygon fill="none" stroke="black" points="245.5,-792 17.5,-792 17.5,-736 245.5,-736 245.5,-792"/>
<text text-anchor="start" x="25.5" y="-779.4" font-family="Times,serif" font-size="12.00">github.com/derailed/k9s/internal/ui</text>
<text text-anchor="start" x="97" y="-759.4" font-family="Times,serif" font-size="22.00">dialog</text>
<text text-anchor="start" x="62" y="-743.8" font-family="Times,serif" font-size="14.00">build 41.487591ms</text>
</g>
<!-- 23&#45;&gt;115 -->
<g id="edge10" class="edge">
<title>23&#45;&gt;115</title>
<path fill="none" stroke="black" d="M257.49,-828C237.74,-818.12 215.21,-806.86 194.72,-796.61"/>
<polygon fill="black" stroke="black" points="196.29,-793.48 185.78,-792.14 193.16,-799.74 196.29,-793.48"/>
</g>
<!-- 117 -->
<g id="node9" class="node">
<title>117</title>
<polygon fill="none" stroke="black" points="456,-516 243,-516 243,-460 456,-460 456,-516"/>
<text text-anchor="start" x="251" y="-503.4" font-family="Times,serif" font-size="12.00">github.com/derailed/k9s/internal</text>
<text text-anchor="start" x="325" y="-483.4" font-family="Times,serif" font-size="22.00">xray</text>
<text text-anchor="start" x="275.5" y="-467.8" font-family="Times,serif" font-size="14.00">build 345.505127ms</text>
</g>
<!-- 23&#45;&gt;117 -->
<g id="edge11" class="edge">
<title>23&#45;&gt;117</title>
<path fill="none" stroke="black" d="M314.32,-827.79C321.03,-763.21 337.91,-600.57 345.59,-526.63"/>
<polygon fill="black" stroke="black" points="349.1,-526.7 346.65,-516.39 342.14,-525.97 349.1,-526.7"/>
</g>
<!-- 277 -->
<g id="node10" class="node">
<title>277</title>
<polygon fill="none" stroke="black" points="441.5,-332 257.5,-332 257.5,-276 441.5,-276 441.5,-332"/>
<text text-anchor="start" x="265.5" y="-319.4" font-family="Times,serif" font-size="12.00">github.com/derailed/popeye</text>
<text text-anchor="start" x="328" y="-299.4" font-family="Times,serif" font-size="22.00">pkg</text>
<text text-anchor="start" x="275.5" y="-283.8" font-family="Times,serif" font-size="14.00">build 364.880583ms</text>
</g>
<!-- 98&#45;&gt;277 -->
<g id="edge12" class="edge">
<title>98&#45;&gt;277</title>
<path fill="none" stroke="black" d="M349.5,-368C349.5,-359.97 349.5,-351.03 349.5,-342.47"/>
<polygon fill="black" stroke="black" points="353,-342.29 349.5,-332.29 346,-342.3 353,-342.29"/>
</g>
<!-- 99&#45;&gt;98 -->
<g id="edge13" class="edge">
<title>99&#45;&gt;98</title>
<path fill="none" stroke="black" d="M212.33,-551.9C211.64,-525.99 214.4,-486.98 233.5,-460 242.1,-447.84 253.82,-437.79 266.5,-429.57"/>
<polygon fill="black" stroke="black" points="268.68,-432.34 275.42,-424.17 265.05,-426.36 268.68,-432.34"/>
</g>
<!-- 99&#45;&gt;117 -->
<g id="edge14" class="edge">
<title>99&#45;&gt;117</title>
<path fill="none" stroke="black" d="M255,-552C269.16,-542.56 285.21,-531.86 300.01,-521.99"/>
<polygon fill="black" stroke="black" points="302.18,-524.75 308.56,-516.29 298.29,-518.93 302.18,-524.75"/>
</g>
<!-- 112&#45;&gt;98 -->
<g id="edge15" class="edge">
<title>112&#45;&gt;98</title>
<path fill="none" stroke="black" d="M489.47,-643.74C495.77,-600.82 501.72,-516.56 464.5,-460 456.47,-447.79 445.23,-437.75 432.91,-429.55"/>
<polygon fill="black" stroke="black" points="434.57,-426.46 424.22,-424.16 430.88,-432.41 434.57,-426.46"/>
</g>
<!-- 115&#45;&gt;22 -->
<g id="edge16" class="edge">
<title>115&#45;&gt;22</title>
<path fill="none" stroke="black" d="M131.5,-736C131.5,-727.97 131.5,-719.03 131.5,-710.47"/>
<polygon fill="black" stroke="black" points="135,-710.29 131.5,-700.29 128,-710.3 135,-710.29"/>
</g>
<!-- 117&#45;&gt;98 -->
<g id="edge17" class="edge">
<title>117&#45;&gt;98</title>
<path fill="none" stroke="black" d="M349.5,-460C349.5,-451.97 349.5,-443.03 349.5,-434.47"/>
<polygon fill="black" stroke="black" points="353,-434.29 349.5,-424.29 346,-434.3 353,-434.29"/>
</g>
<!-- 526 -->
<g id="node11" class="node">
<title>526</title>
<polygon fill="none" stroke="black" points="472.5,-240 226.5,-240 226.5,-184 472.5,-184 472.5,-240"/>
<text text-anchor="start" x="234.5" y="-227.4" font-family="Times,serif" font-size="12.00">github.com/aws/aws&#45;sdk&#45;go/service/s3</text>
<text text-anchor="start" x="287.5" y="-207.4" font-family="Times,serif" font-size="22.00">s3manager</text>
<text text-anchor="start" x="275.5" y="-191.8" font-family="Times,serif" font-size="14.00">build 356.912126ms</text>
</g>
<!-- 277&#45;&gt;526 -->
<g id="edge18" class="edge">
<title>277&#45;&gt;526</title>
<path fill="none" stroke="black" d="M349.5,-276C349.5,-267.97 349.5,-259.03 349.5,-250.47"/>
<polygon fill="black" stroke="black" points="353,-250.29 349.5,-240.29 346,-250.3 353,-250.29"/>
</g>
<!-- 700 -->
<g id="node12" class="node">
<title>700</title>
<polygon fill="none" stroke="black" points="464,-56 235,-56 235,0 464,0 464,-56"/>
<text text-anchor="start" x="243" y="-43.4" font-family="Times,serif" font-size="12.00">github.com/aws/aws&#45;sdk&#45;go/service</text>
<text text-anchor="start" x="336.5" y="-23.4" font-family="Times,serif" font-size="22.00">s3</text>
<text text-anchor="start" x="278" y="-7.8" font-family="Times,serif" font-size="14.00">build 5.070865122s</text>
</g>
<!-- 526&#45;&gt;700 -->
<g id="edge19" class="edge">
<title>526&#45;&gt;700</title>
<path fill="none" stroke="black" d="M317.66,-183.95C308,-173.78 298.59,-161.41 293.5,-148 284.65,-124.74 284.65,-115.26 293.5,-92 297.4,-81.74 303.83,-72.08 310.96,-63.55"/>
<polygon fill="black" stroke="black" points="313.61,-65.84 317.66,-56.05 308.39,-61.18 313.61,-65.84"/>
</g>
<!-- 701 -->
<g id="node13" class="node">
<title>701</title>
<polygon fill="none" stroke="black" points="548.5,-148 302.5,-148 302.5,-92 548.5,-92 548.5,-148"/>
<text text-anchor="start" x="310.5" y="-135.4" font-family="Times,serif" font-size="12.00">github.com/aws/aws&#45;sdk&#45;go/service/s3</text>
<text text-anchor="start" x="386" y="-115.4" font-family="Times,serif" font-size="22.00">s3iface</text>
<text text-anchor="start" x="351.5" y="-99.8" font-family="Times,serif" font-size="14.00">build 444.346913ms</text>
</g>
<!-- 526&#45;&gt;701 -->
<g id="edge20" class="edge">
<title>526&#45;&gt;701</title>
<path fill="none" stroke="black" d="M372.3,-184C379.75,-175.18 388.13,-165.26 395.99,-155.94"/>
<polygon fill="black" stroke="black" points="398.67,-158.19 402.45,-148.29 393.32,-153.68 398.67,-158.19"/>
</g>
<!-- 701&#45;&gt;700 -->
<g id="edge21" class="edge">
<title>701&#45;&gt;700</title>
<path fill="none" stroke="black" d="M402.7,-92C395.25,-83.18 386.87,-73.26 379,-63.94"/>
<polygon fill="black" stroke="black" points="381.67,-61.68 372.55,-56.29 376.32,-66.19 381.67,-61.68"/>
</g>
</g>
</svg>
